# xmcd
#
# Track frame offsets:
#	150
#	17220
#	36420
#	65145
#	86255
#	102903
#	120638
#	147263
#	166733
#	189165
#
# Disc length: 2856 seconds
#
# Revision: 1
# Processed by: cddbd v1.5.2PL0 Copyright (c) Steve Scherf et al.
# Submitted via: EZCDAudioConverter 8.0.2.1
#
DISCID=800b260a
DTITLE=Phương Dung - Đố Ai
DYEAR=1992
DGENRE=country
TTITLE0=Gió về miền xuôi
TTITLE1=Mấy dặm sơn khê
TTITLE2=Đố Ai
TTITLE3=Còn thương rau đắng mọc sau hè
TTITLE4=Lý ngựa ô
TTITLE5=Nỗi buồn đêm đông
TTITLE6=Đường về quê hương
TTITLE7=Nước non ngàn dặm ra đi
TTITLE8=Nỗi buồn Châu Pha
TTITLE9=Rước tình về với quê hương
EXTD=
EXTT0=
EXTT1=
EXTT2=
EXTT3=
EXTT4=
EXTT5=
EXTT6=
EXTT7=
EXTT8=
EXTT9=
PLAYORDER=
